PathFileType	4	(X/Y/Z)	C:/Users/opensim2020/Desktop/walking_exp_matlab/subject06_walking13_straight_04.trc																																																																																																																																																				
DataRate	CameraRate	NumFrames	NumMarkers	Units	OrigDataRate	OrigDataStartFrame	OrigNumFrames																																																																																																																																																
100	100	4	50	mm	100	3038	204																																																																																																																																																
Frame#	Time	LFHD			RFHD			LBHD			RBHD			C7			T10			CLAV			STRN			RBAK			LSHO			LUPA			LELB			LFRM			LWRA			LWRB			LFIN			RSHO			RUPA			RELB			RFRM			RWRA			RWRB			RFIN			LASI			RASI			LPSI			RPSI			LTHI			LKNE			LTIB			LANK			LHEE			LTOE			RTHI			RKNE			RTIB			RANK			RHEE			RTOE			*39			*40			*41			*42			*43			*44			*45			*46			*47			*48			*49		
		X1	Y1	Z1	X2	Y2	Z2	X3	Y3	Z3	X4	Y4	Z4	X5	Y5	Z5	X6	Y6	Z6	X7	Y7	Z7	X8	Y8	Z8	X9	Y9	Z9	X10	Y10	Z10	X11	Y11	Z11	X12	Y12	Z12	X13	Y13	Z13	X14	Y14	Z14	X15	Y15	Z15	X16	Y16	Z16	X17	Y17	Z17	X18	Y18	Z18	X19	Y19	Z19	X20	Y20	Z20	X21	Y21	Z21	X22	Y22	Z22	X23	Y23	Z23	X24	Y24	Z24	X25	Y25	Z25	X26	Y26	Z26	X27	Y27	Z27	X28	Y28	Z28	X29	Y29	Z29	X30	Y30	Z30	X31	Y31	Z31	X32	Y32	Z32	X33	Y33	Z33	X34	Y34	Z34	X35	Y35	Z35	X36	Y36	Z36	X37	Y37	Z37	X38	Y38	Z38	X39	Y39	Z39	X40	Y40	Z40	X41	Y41	Z41	X42	Y42	Z42	X43	Y43	Z43	X44	Y44	Z44	X45	Y45	Z45	X46	Y46	Z46	X47	Y47	Z47	X48	Y48	Z48	X49	Y49	Z49	X50	Y50	Z50
																																																																																																																																																							
179	1.78	572.21277	1657.96216	-1517.8269	566.32147	1647.17358	-1385.79333	440.55341	1598.50647	-1523.90405	436.27347	1593.48792	-1394.90723	442.2453	1440.06091	-1461.06311	418.42905	1110.12756	-1443.21802	555.15479	1367.27234	-1458.94202	601.87836	1193.18848	-1459.79126	377.79593	1269.45435	-1372.4519	496.67511	1394.05798	-1621.37231	451.42905	1197.3031	-1686.73987	415.47607	1090.41711	-1692.45313	397.33606	941.26343	-1714.61096	427.31155	813.81427	-1675.12549	366.63452	826.23334	-1709.56653	381.51483	736.06842	-1710.12366	511.07816	1401.49878	-1299.46594	513.05353	1206.36279	-1200.52747	557.34503	1094.73096	-1184.72766	640.58173	1011.14142	-1179.40417	768.31848	949.79596	-1234.25085	735.11047	913.0788	-1189.5072	813.38751	886.58746	-1196.65015	605.39984	960.16534	-1548.40576	594.85315	958.86279	-1328.73413	443.87418	975.47638	-1529.43005	444.39697	979.9726	-1360.31726	608.01288	650.20599	-1625.16504	666.79712	499.67139	-1596.27856	705.66119	248.16943	-1599.08264	759.92932	81.36752	-1564.37439	726.03094	53.65396	-1519.82983	906.51855	93.52939	-1553.78503	512.28436	623.05713	-1288.84167	492.39615	497.37769	-1312.34595	364.71619	257.78992	-1320.9303	285.98111	88.08311	-1363.69714	238.40083	70.869	-1406.82935	428.63708	40.23769	-1369.2019	467.76614	1692.75354	-1463.05481	NaN	NaN	NaN	NaN	NaN	NaN	NaN	NaN	NaN	NaN	NaN	NaN	NaN	NaN	NaN	NaN	NaN	NaN	NaN	NaN	NaN	NaN	NaN	NaN	NaN	NaN	NaN	NaN	NaN	NaN
180	1.79	582.87335	1656.65857	-1518.5968	577.02979	1645.82471	-1386.57861	451.16501	1597.27625	-1524.66003	446.95935	1592.22437	-1395.71497	452.78854	1438.7677	-1462.01233	429.34927	1108.58972	-1444.44873	565.73846	1366.00574	-1459.83289	612.65198	1191.97339	-1460.7356	388.31427	1267.91162	-1373.64355	507.13513	1392.64453	-1622.24243	461.11212	1196.31128	-1687.72913	424.35022	1089.58569	-1693.4624	404.85043	940.66864	-1715.74658	433.69489	812.77618	-1676.43701	373.16272	825.93103	-1710.85693	387.05539	735.59985	-1711.28528	521.67719	1399.96484	-1300.19678	523.23322	1204.65503	-1201.54846	567.50208	1093.16284	-1185.49951	651.22064	1010.33942	-1180.26355	779.59534	950.56006	-1235.10583	746.59418	913.18384	-1190.67847	825.15692	887.66327	-1197.72437	616.61395	958.7912	-1549.55151	606.00879	957.6886	-1329.76892	455.10742	974.02759	-1530.82422	455.42166	978.63397	-1361.72827	619.38959	648.79529	-1625.95447	677.539	498.67432	-1597.15979	717.52972	246.84198	-1599.94958	772.67426	80.31578	-1564.77539	738.74744	52.31771	-1520.47656	919.08789	93.71014	-1553.4552	522.32581	622.10693	-1289.61829	502.11044	496.48294	-1312.78638	369.9437	258.9968	-1320.67371	287.58398	90.84309	-1362.81555	239.59149	74.81741	-1405.86743	429.08081	40.16892	-1369.17725	478.4696	1691.47217	-1463.80615	NaN	NaN	NaN	NaN	NaN	NaN	NaN	NaN	NaN	NaN	NaN	NaN	NaN	NaN	NaN	NaN	NaN	NaN	NaN	NaN	NaN	NaN	NaN	NaN	NaN	NaN	NaN	NaN	NaN	NaN
181	1.8	593.53516	1655.43616	-1519.32849	587.62482	1644.58862	-1387.27856	461.85699	1596.20862	-1525.49231	457.56033	1591.04956	-1396.47009	463.34665	1437.51587	-1462.73596	440.4288	1107.18079	-1445.73291	576.32513	1364.90234	-1460.79907	623.5719	1190.93567	-1461.78931	398.92035	1266.45117	-1374.86353	517.61694	1391.44946	-1623.23071	471.06784	1195.4386	-1688.73926	433.66028	1088.87769	-1694.50293	412.95889	940.14612	-1716.9032	440.84546	811.94513	-1677.85449	380.33221	825.66553	-1712.09875	393.39267	735.21136	-1712.61499	532.12439	1398.58215	-1300.99097	533.26666	1203.16357	-1202.5946	577.53101	1091.76941	-1186.57031	661.53308	1009.38696	-1181.24524	790.25629	950.66638	-1235.99536	757.48419	912.89886	-1191.73376	836.07184	888.04077	-1198.82385	628.00452	957.52844	-1550.75281	617.37866	956.58466	-1330.96411	466.38599	972.74738	-1532.32874	466.66895	977.45276	-1363.17456	631.05762	647.77325	-1626.67688	688.91443	498.05658	-1597.86621	728.28137	245.44093	-1600.8811	782.69946	78.77558	-1565.33435	748.63605	50.52958	-1521.17456	929.03821	92.4761	-1553.34363	532.76178	621.30304	-1290.35986	512.30035	495.5929	-1313.30945	375.59164	260.32373	-1320.37561	289.32611	93.9838	-1361.77722	240.96831	78.7538	-1404.39893	429.54688	40.09853	-1369.0946	489.19666	1690.31604	-1464.57922	NaN	NaN	NaN	NaN	NaN	NaN	NaN	NaN	NaN	NaN	NaN	NaN	NaN	NaN	NaN	NaN	NaN	NaN	NaN	NaN	NaN	NaN	NaN	NaN	NaN	NaN	NaN	NaN	NaN	NaN
182	1.81	604.30469	1654.49695	-1520.15234	598.31476	1643.43652	-1388.06384	472.45514	1595.30835	-1526.39148	468.17505	1590.03271	-1397.35083	473.72415	1436.37256	-1463.87231	451.73398	1105.88501	-1447.15186	586.90656	1363.84509	-1461.78638	634.47632	1190.04858	-1462.90356	409.60205	1264.9917	-1376.16956	528.0639	1390.46338	-1624.24731	481.29626	1194.69189	-1689.81042	443.50418	1088.24377	-1695.6394	421.7919	939.7851	-1718.20569	448.81787	811.25775	-1679.34436	388.34387	825.48938	-1713.52673	400.52713	734.88025	-1714.00928	542.49927	1397.34033	-1301.92126	543.2229	1201.73828	-1203.86597	587.3313	1090.40479	-1187.73022	671.38782	1008.33282	-1182.2937	800.31573	950.26416	-1236.88916	767.72705	912.20172	-1192.86194	846.56805	887.85846	-1199.6145	639.60138	956.40948	-1552.02893	628.83496	955.59344	-1332.35168	478.18521	971.6535	-1533.73694	478.18976	976.36444	-1364.70544	643.04242	647.10272	-1627.16724	700.67609	497.49945	-1598.33459	737.83118	243.81091	-1601.73547	790.28839	76.62527	-1566.11609	755.75641	48.61108	-1522.21155	936.37408	89.43238	-1553.41248	543.50623	620.4364	-1291.26404	523.01703	494.61353	-1313.79602	381.8826	261.82822	-1320.11353	291.44937	97.49638	-1360.63599	242.51396	83.4366	-1403.0094	430.03821	40.04896	-1368.9823	499.89172	1689.36829	-1465.30786	NaN	NaN	NaN	NaN	NaN	NaN	NaN	NaN	NaN	NaN	NaN	NaN	NaN	NaN	NaN	NaN	NaN	NaN	NaN	NaN	NaN	NaN	NaN	NaN	NaN	NaN	NaN	NaN	NaN	NaN
